<svg xmlns="http://www.w3.org/2000/svg" viewBox="0 0 1047.55 152.74"><defs><style>.cls-1{fill:#D8D4E6;}.cls-2{fill:#7B7B9D;}.cls-3{fill:#9f9ea6;}</style></defs><g id="Layer_2" data-name="Layer 2"><g id="Layer_1-2" data-name="Layer 1"><path class="cls-1" d="M62.39,37.2a1.12,1.12,0,0,1,1.18,1.18V53.93H60.46V73.12a2.43,2.43,0,0,1-.75,1.71c-3.21,3.65-13.18,7.72-26.58,7.72C11.36,82.55,0,71.83,0,54.78V32.91C0,14,13.51,3.22,32.91,3.22c12.55,0,21.34,3.11,26.7,8.36a2.14,2.14,0,0,1,.64,1.82V29.48H42.13A1.07,1.07,0,0,1,41,28.3V23.37a30.53,30.53,0,0,0-7.5-.86c-7.51,0-11.26,3.33-11.26,10.19V53.93c0,3.21.75,5.46,2.25,7,1.72,1.61,4.29,2.36,8.58,2.36,5,0,7.5-.85,8.15-1.71V53.93h-5.9a1.07,1.07,0,0,1-1.18-1.18V37.2Z"/><path class="cls-1" d="M125.76,45.13V55.21a1,1,0,0,1-1.18,1.07H92v.86c0,2.47.43,4.4,1.71,5.68,1.61,1.61,4.29,2.36,10.19,2.26A58.82,58.82,0,0,0,122,62.4h2.15V77.73a1,1,0,0,1-.43.85c-1.93,1.93-11.58,3.65-21.44,3.65-20.8,0-31.41-9-31.41-25.3V45.24c0-14.79,10.5-25.3,27.55-25.3C115.79,19.94,125.76,29.8,125.76,45.13ZM92,44.17V46h14.26V44.38c0-2.68-.54-4.5-1.72-5.68a7.19,7.19,0,0,0-5.36-1.82C94.56,36.88,92,39.45,92,44.17Z"/><path class="cls-1" d="M136.59,80.41a1.07,1.07,0,0,1-1.18-1.18V21.76h20.26a1.07,1.07,0,0,1,1.18,1.18v8H159c4.4-6.75,9.22-10.29,16.41-10.29,9.22,0,14.68,6.11,14.68,16.94V80.41H169.82a1.07,1.07,0,0,1-1.18-1.18V43c0-2.36-1-3.54-3.32-3.54a13.78,13.78,0,0,0-8.47,3.33V80.41Z"/><path class="cls-1" d="M255.16,45.46V56.82c0,16.3-10.51,25.41-28.3,25.41s-28.31-9.11-28.31-25.41V45.46c0-16.3,10.51-25.52,28.31-25.52S255.16,29.16,255.16,45.46Zm-35.16,1v9.44c0,2.57.53,4.39,1.82,5.57,1.07,1.18,2.79,1.72,5,1.72,4.82,0,6.86-2.15,6.86-7.29V46.42c0-2.79-.54-4.61-1.72-5.79A7.21,7.21,0,0,0,226.86,39C222,39,220,41.28,220,46.42Z"/><path class="cls-1" d="M262.67,54.57V30.77c0-16.3,11.47-27.55,31.94-27.55,12,0,20.91,3.86,24.23,7.29a2.12,2.12,0,0,1,.65,1.82V32.91h-17.8c-.86,0-1.07-.43-1.07-1.18V23.8a17.16,17.16,0,0,0-6.54-1.18c-5.79,0-8.9,3.22-8.9,9.86V51.57c0,3.75.75,6.54,2.57,8.36s4.72,2.57,8.79,2.57c7.51,0,13.19-1.28,21.12-5.47h2.15V75.37a2.31,2.31,0,0,1-.43,1.18c-3,3-12.55,6-24.34,6C273.6,82.55,262.67,71.72,262.67,54.57Z"/><path class="cls-1" d="M325,80.41c-.54,0-1.18-.33-1-1.4,4.18-19.83,11.36-52.85,15.76-73.65h33.56c.75,0,1.07.32,1.28,1.18,4,18.22,8.15,38,12.65,58.86,1,4.93,2.15,9.86,3.11,15H370.73c-1.39,0-1.71-.22-2.25-2.79-.86-3.86-1.61-7.51-2.36-11.15H348c-1,4.39-1.93,9-2.9,13.94Zm26.37-30.77H362.8c-1.82-9.76-3.43-18.55-4.61-27h-2.25C354.76,31,353.15,39.77,351.33,49.64Z"/><path class="cls-1" d="M405.79,80.41a1.07,1.07,0,0,1-1.18-1.18v-54H387.78A1.07,1.07,0,0,1,386.6,24V5.36h56.72a1.07,1.07,0,0,1,1.18,1.18V25.19h-18V80.41Z"/><path class="cls-2" d="M437.85,80.73a1.07,1.07,0,0,1-1.18-1.18V56.82h22A1.07,1.07,0,0,1,459.83,58V80.73Z"/><path class="cls-2" d="M507,79.23a1.2,1.2,0,0,1-1.18,1.18H494.13c-16.61,0-25.51-8-25.51-24.66V41.81h-7.18a1.18,1.18,0,0,1-1.18-1.18V21.76h8.36V5.36h20.26a1.2,1.2,0,0,1,1.18,1.18V21.76h15.76A1.2,1.2,0,0,1,507,22.94V41.81H490.06V54.14c0,2.25.43,3.75,1.61,4.82,1,1,2.57,1.29,4.93,1.29H507Z"/><path class="cls-2" d="M571.43,45.46V56.82c0,16.3-10.5,25.41-28.3,25.41s-28.3-9.11-28.3-25.41V45.46c0-16.3,10.5-25.52,28.3-25.52S571.43,29.16,571.43,45.46Zm-35.16,1v9.44c0,2.57.54,4.39,1.82,5.57,1.07,1.18,2.79,1.72,5,1.72C548,63.15,550,61,550,55.86V46.42c0-2.79-.53-4.61-1.71-5.79A7.24,7.24,0,0,0,543.13,39C538.31,39,536.27,41.28,536.27,46.42Z"/><path class="cls-2" d="M635.76,45.46V56.82c0,16.3-10.51,25.41-28.3,25.41s-28.31-9.11-28.31-25.41V45.46c0-16.3,10.51-25.52,28.31-25.52S635.76,29.16,635.76,45.46Zm-35.16,1v9.44c0,2.57.53,4.39,1.82,5.57,1.07,1.18,2.79,1.72,5,1.72,4.82,0,6.86-2.15,6.86-7.29V46.42c0-2.79-.54-4.61-1.72-5.79A7.21,7.21,0,0,0,607.46,39C602.63,39,600.6,41.28,600.6,46.42Z"/><path class="cls-2" d="M672.64,80.41H660.53c-9.12,0-15.66-5.15-15.66-15.44V0h20.91A1.13,1.13,0,0,1,667,1.18V58.54a1.71,1.71,0,0,0,.43,1.28,2,2,0,0,0,1.5.54h4.93V79.23A1.2,1.2,0,0,1,672.64,80.41Z"/><path class="cls-2" d="M714.13,60.89c0-1.39-1-2.57-5-3.1l-7.82-1.08c-13.94-1.93-19.94-6.75-19.94-16.94,0-12.43,10.72-19.72,30-19.72,10,0,16.73,1.93,18.77,3,.75.21.85.64.85,1.5V41.17h-2.14A63,63,0,0,0,709,38c-5.9,0-8.26,1.07-8.26,2.9s1.5,2.57,5.79,3.11l7.61,1c12.65,1.5,19.3,7.61,19.3,17.15,0,13.3-9.22,20.16-27.55,20.16-10.62,0-22.2-1.82-24.45-3.22-.53-.32-.53-.53-.53-1.18V60.46H683c7.72,2.58,13.83,3.22,24.66,3.22C713,63.68,714.13,62.4,714.13,60.89Z"/><path class="cls-3" d="M780.87,80.13a.66.66,0,0,1-.72.57h-3.4c-6.48,0-10-3.25-8.08-10.66,1-4.22,2.06-8.28,3.09-12.4h-4.53a.4.4,0,0,1-.41-.57c.31-1.34.62-2.42.93-3.75h5.09c.31-1.24.62-2.42.93-3.66.41-1.65.82-3.34,1.23-5h4.12a.41.41,0,0,1,.41.56c-.67,2.68-1.34,5.41-2,8.09h9.53c.31,0,.46.25.41.56-.36,1.34-.62,2.42-.93,3.76H776.39c-1,4.12-2.11,8.28-3.14,12.45-.61,2.58-.61,4.17.26,5.1s2.11,1.08,4.17,1.08h4.17C781.49,77.61,781.23,78.79,780.87,80.13Z"/><path class="cls-3" d="M812.45,64.74l-1.29,5.2c-1.8,7.36-6.12,11.32-13.54,11.32s-11.37-5.14-9.62-12L789.29,64c1.85-7.41,6.28-11.27,13.79-11.27C810.29,52.75,814.09,57.74,812.45,64.74ZM794,64l-1.39,5.61c-.57,2.16-.62,4.53.88,6,.87.93,2.31,1.49,4.53,1.49,4.47,0,7.15-2.62,8.33-7.1l1.44-5.56c.57-2.16.57-4.63-.92-6.12a5.92,5.92,0,0,0-4.38-1.44C797.93,56.87,795.15,59.39,794,64Z"/><path class="cls-3" d="M482.41,115.07c.36,0,.52.21.41.56-1.64,6.7-3.34,13.34-5,20-.26.87-.46,1.7-.67,2.62a6.78,6.78,0,0,0,2.42.31c5.66,0,9.78-2.88,11.32-9l.72-2.78c1.14-4.52.83-7.67-1-10.91l.2-.82h3.76a.64.64,0,0,1,.62.26c1.39,1.64,2.42,6.53,1.18,11.47l-.72,2.78c-2.42,9.37-8.85,13.33-16.37,13.33-4.22,0-6.84-1.13-7.36-1.64-.2-.21-.2-.31-.1-.67,1.8-7.16,3.55-14.16,5.35-21.31h-3.39c-.36,0-.52-.21-.42-.57.21-1,.57-2.42.88-3.65Z"/><path class="cls-3" d="M512.72,115.07c.31,0,.52.15.41.56-1.64,6.59-3.24,13.08-4.94,19.82-.31,1.24-.31,2,.11,2.42a2.36,2.36,0,0,0,1.69.46h2.58c-.31,1.19-.57,2.37-.88,3.61-.1.46-.36.51-.72.51h-1.75c-5.35,0-6.69-3.14-5.71-7,1.39-5.56,2.73-10.86,4.07-16.21H503c-.3,0-.51-.16-.41-.57.31-1.13.62-2.37.88-3.55Zm3.81-12.46c.36,0,.51.21.41.57l-1.28,5h-5.92c-.36,0-.52-.2-.41-.56l1.28-5Z"/><path class="cls-3" d="M535,134.83c.52-2-.15-3.34-3.65-4.17l-3.91-.92c-5.15-1.08-7.1-3.91-6.13-7.88,1.34-5,5.72-7.25,12.56-7.25,5,0,8.39,1.39,8.86,1.9a.61.61,0,0,1,0,.52c-.36,1.38-.62,2.47-.93,3.75H541a16.73,16.73,0,0,0-7.78-1.7c-4.16,0-6.69,1.14-7.25,3.3-.47,1.85,0,3,3.24,3.86l4.12.87c5.4,1.14,7.2,4.48,6.28,8.34-1.44,5.25-5.3,7.51-12.66,7.51-5.92,0-9.84-2-10.81-3a.46.46,0,0,1,0-.47c.36-1.64.66-2.77.87-3.91h.82c2.73,2,5.56,2.83,10.14,2.83S534.42,136.94,535,134.83Z"/><path class="cls-3" d="M556.13,115.07a.41.41,0,0,1,.41.56c-1.49,6.08-3,12.1-4.53,18.17-.72,2.89.21,4.43,2.57,4.43,2.53,0,5.25-1.34,9.17-5.46,1.39-5.66,2.72-11,4.42-17.7h4.22a.45.45,0,0,1,.47.62c-1.7,6.84-3.61,14.15-5.2,20.58-.26,1-.16,1.39.1,1.65a1.57,1.57,0,0,0,1.13.36h1.7c-.31,1.18-.62,2.57-.93,3.76a.5.5,0,0,1-.56.41h-1.91c-3.08,0-4.78-1.8-4.58-4.79h-.77c-3.09,3.5-6.17,5.36-9.52,5.36-4.79,0-6.54-3.86-5.56-7.93,1.24-5,2.52-10,3.76-15,.46-1.65.87-3.34,1.28-5Z"/><path class="cls-3" d="M597.37,119.34h.77c.31-1.23.57-2.42,1.08-4.27h4.22c.36,0,.52.26.42.62-1.7,6.84-3.55,14.15-5.2,20.58-.36,1.44,0,2,1.23,2h1.75c-.31,1.18-.67,2.57-1,3.76-.06.31-.26.41-.57.41h-1.9c-3,0-4.69-1.65-4.59-4.43H593c-2.17,3.19-5.05,4.94-8.75,4.94-5.87,0-8.6-4.47-7-11.27l1.75-7c1.85-7.56,5.81-10.19,10.6-10.19A8.14,8.14,0,0,1,597.37,119.34Zm-11.68,19.2c2.93,0,5.61-1.39,9.11-6,.82-3.19,1.59-6.38,2.42-9.57-1.75-2.53-4-4-6.9-4-3.24,0-5.4,1.6-6.54,6.18l-1.69,6.59c-.72,2.72-.42,4.68.66,5.81A4.19,4.19,0,0,0,585.69,138.54Z"/><path class="cls-3" d="M616.69,103.85h4.12a.4.4,0,0,1,.41.57c-2.52,10.13-5.1,20.38-7.62,30.52-.31,1.18-.31,1.95,0,2.42a2.6,2.6,0,0,0,2.11.66h2.52c-.36,1.29-.66,2.58-1,3.86a.75.75,0,0,1-.72.57h-2.37c-4.33,0-6.69-2.06-5.41-7.26,2.17-8.49,4.28-17.14,6.44-25.68C615.66,107.71,616.23,105.7,616.69,103.85Z"/><path class="cls-3" d="M635.18,115.07c.31,0,.52.15.42.56-1.65,6.59-3.25,13.08-5,19.82-.3,1.24-.3,2,.11,2.42a2.39,2.39,0,0,0,1.7.46H635c-.31,1.19-.57,2.37-.88,3.61-.1.46-.36.51-.72.51h-1.75c-5.35,0-6.69-3.14-5.71-7,1.39-5.56,2.73-10.86,4.07-16.21h-4.58c-.31,0-.52-.16-.42-.57.31-1.13.62-2.37.88-3.55ZM639,102.61c.36,0,.52.21.41.57l-1.28,5H632.2c-.36,0-.52-.2-.41-.56l1.28-5Z"/><path class="cls-3" d="M649.74,113.22c.36,0,.51.2.41.56s-.2.83-.31,1.29h16a.4.4,0,0,1,.41.56l-1.23,5.1q-8.19,7-16.42,14L648.3,136c2,2.12,2.57,2.37,5.35,2.37h7.47c-.16.62-.78,3.14-.83,3.55a.72.72,0,0,1-.72.57h-6.18c-4.16,0-6.22-.93-8.9-4.12-1.7,1.44-3.34,2.83-5,4.27a1,1,0,0,1-.72.31c-.36,0-.57-.2-.47-.61l1.19-4.74c7.2-6.18,14.41-12.3,21.62-18.48l.15-.72a17.47,17.47,0,0,1-5.4.77h-7c-.36,1.34-.67,2.58-.93,3.56h-3.81a.42.42,0,0,1-.41-.57c.57-2.37,1.65-6.54,2.21-8.9Z"/><path class="cls-3" d="M693.41,124l-.21.78c-1.18,4.58-4.73,6.69-10.29,6.69h-9.47l-.05.2c-.67,2.52-.42,4.38.72,5.56s3,1.75,5.81,1.75a20.08,20.08,0,0,0,9-1.85h.77c-.31,1.08-.62,2.26-.92,3.39a1.36,1.36,0,0,1-.26.42c-1.19,1.18-4.63,2.11-9,2.11-8.23,0-12.61-4.43-10.75-11.94l1.39-5.41c2-8.08,7.72-11.17,14.1-11.17C691.3,114.5,694.8,118.88,693.41,124ZM674.78,126l-.52,2.11h8.65c3.19,0,5.25-1.18,5.87-3.91.51-1.85.2-3.4-.83-4.37-.87-.88-2.21-1.39-4.37-1.39C679.31,118.47,676.17,120.63,674.78,126Z"/><path class="cls-3" d="M734.83,119.13h.77c.36-1.33.73-2.67,1-4.06h4.17c.36,0,.52.21.41.56-2.31,9.22-4.16,16.37-6.53,25.58-2.22,8.81-7.21,11.53-15.24,11.53-4.42,0-7.66-1.28-8.39-2.11-.1-.1-.15-.25,0-.51.31-1.18.52-2,.93-3.29h.77a13.84,13.84,0,0,0,7.26,1.69c3.09,0,5.45-.67,7.2-2.42a11.63,11.63,0,0,0,3-5.76c.31-1.13.57-2.21.82-3.24h-.82a10.65,10.65,0,0,1-8.75,4.73c-5.82,0-8.49-4.27-6.84-10.91l1.54-6.23c1.85-7.36,5.56-10.19,10.91-10.19A8.52,8.52,0,0,1,734.83,119.13Zm-11.78,18.23c3.14,0,6.12-1.65,9.47-5.87.67-2.73,1.33-5.41,2.11-8.49-2.17-3-4.17-4.12-7-4.12-3.35,0-5.61,1.75-6.8,6.48L719.44,131c-.67,2.68-.41,4.43.57,5.41A4.23,4.23,0,0,0,723.05,137.36Z"/><path class="cls-3" d="M770,124l-.2.78c-1.19,4.58-4.74,6.69-10.3,6.69H750l0,.2c-.67,2.52-.41,4.38.72,5.56s3,1.75,5.82,1.75a20.06,20.06,0,0,0,9-1.85h.78c-.31,1.08-.62,2.26-.93,3.39a1.19,1.19,0,0,1-.26.42c-1.18,1.18-4.63,2.11-9,2.11-8.24,0-12.61-4.43-10.76-11.94l1.39-5.41c2-8.08,7.72-11.17,14.1-11.17C767.86,114.5,771.36,118.88,770,124ZM751.34,126l-.51,2.11h8.64c3.19,0,5.25-1.18,5.87-3.91a4.24,4.24,0,0,0-.82-4.37c-.88-.88-2.22-1.39-4.38-1.39C755.87,118.47,752.73,120.63,751.34,126Z"/><path class="cls-3" d="M784.61,115.07a.43.43,0,0,1,.41.56c-.36,1.34-.67,2.68-1,4h.88c2.88-3.19,6-5.15,9.36-5.15,4.64,0,6.59,3.45,5.46,7.88-1.18,4.84-2.37,9.26-3.55,14.1-.21.77-.16,1.29.15,1.6a1.53,1.53,0,0,0,1.13.3H799c-.31,1.19-.57,2.32-.82,3.5a.67.67,0,0,1-.73.57h-1.95c-3.71,0-5.1-2.52-4.17-6.23,1.13-4.47,2.11-8.59,3.29-13.22.67-2.73-.36-4-2.41-4-2.73,0-5.67,1.6-9.37,5.46-1.49,6-3,12-4.53,18H774a.42.42,0,0,1-.42-.57c1.81-7.2,3.61-14.46,5.41-21.72.56-2.21,1-4,1.29-5.09Z"/><path class="cls-3" d="M830.28,126.5,829,131.69c-1.8,7.36-6.13,11.33-13.54,11.33s-11.37-5.15-9.62-12l1.28-5.25c1.86-7.41,6.28-11.27,13.8-11.27C828.12,114.5,831.93,119.5,830.28,126.5Zm-18.47-.78-1.39,5.61c-.57,2.16-.62,4.53.87,6,.88.92,2.32,1.49,4.53,1.49,4.48,0,7.16-2.63,8.34-7.1l1.44-5.56c.57-2.16.57-4.64-.93-6.13a5.92,5.92,0,0,0-4.37-1.44C815.77,118.62,813,121.14,811.81,125.72Z"/><path class="cls-3" d="M845,115.07c.06.05-.1,3-.15,4.63h.82c2.58-3.29,5.46-5.2,8.65-5.2s5.1,1.65,5,5.2h1c2.37-3.34,4.89-5.2,8.49-5.2,4,0,6.38,3,5,8.55-.72,2.83-2.22,8.49-3.61,14.2a.89.89,0,0,0,.06.83c.15.2.41.25.77.25h1.23c-.31,1.24-.62,2.37-.87,3.55a.66.66,0,0,1-.72.57h-1.75c-3.35,0-4.43-2.16-3.71-5,1.34-5.2,2.63-10.4,3.5-13.69.77-3-.05-4.48-2.47-4.48s-4.68,1.75-7.82,5.35c-.93,3.61-2.52,9.94-4.48,17.81h-4.37a.42.42,0,0,1-.42-.57c1.7-6.84,3.45-13.69,4.53-18.11.93-3.66,0-4.48-2.06-4.48-2.31,0-4.89,2.06-7.92,5.71-1.29,5-2.78,11.22-4.38,17.45H835a.42.42,0,0,1-.41-.57c1.75-7.2,3.6-14.46,5.4-21.66.52-2.17,1-4,1.29-5.15Z"/><path class="cls-3" d="M890.12,115.07c.3,0,.51.15.41.56-1.65,6.59-3.24,13.08-4.94,19.82-.31,1.24-.31,2,.1,2.42a2.4,2.4,0,0,0,1.7.46H890c-.31,1.19-.56,2.37-.87,3.61-.11.46-.36.51-.72.51h-1.75c-5.36,0-6.69-3.14-5.72-7,1.39-5.56,2.73-10.86,4.07-16.21h-4.58c-.31,0-.52-.16-.41-.57.31-1.13.61-2.37.87-3.55Zm3.8-12.46c.37,0,.52.21.42.57l-1.29,5h-5.92c-.36,0-.51-.2-.41-.56l1.29-5Z"/><path class="cls-3" d="M918.76,116.36a.63.63,0,0,1,.1.51c-.36,1.34-.62,2.42-.93,3.76h-.77A11.39,11.39,0,0,0,911,119c-4.79,0-7.93,2-9.27,7.31l-1,4.22c-.67,2.62-.51,4.73.52,6.12.87,1.24,2.47,1.91,4.78,1.91a13.17,13.17,0,0,0,7.11-2h.77c-.31,1.29-.72,2.94-1,4.17a.9.9,0,0,1-.31.46c-.87.73-3,1.81-7.21,1.81-7.72,0-11.42-4.53-9.47-12.46l1.14-4.68c2-7.93,7.2-11.38,14.87-11.38C915.77,114.5,918.24,115.69,918.76,116.36Z"/><path class="cls-3" d="M956.89,119.34h.82q1.32-5.32,2.63-10.65c.36-1.44.66-2.73,1.23-4.79h4.22c.36,0,.52.21.41.62-2.62,10.55-5.5,21.87-8,31.75-.21.83-.21,1.44.15,1.81a1.49,1.49,0,0,0,1.08.36h1.65c-.31,1.08-.62,2.36-.93,3.6,0,.31-.26.41-.56.41h-1.91c-3,0-4.58-1.65-4.48-4.43h-.77c-2.47,3.4-5.15,4.94-8.85,4.94-5.77,0-8.55-4.52-6.85-11.27l1.75-7c1.86-7.56,5.82-10.19,10.61-10.19A8.15,8.15,0,0,1,956.89,119.34Zm-11.69,19.2c3,0,5.67-1.44,9.22-6.08.77-3.13,1.54-6.27,2.36-9.41-1.8-2.58-4-4.07-6.94-4.07-3.25,0-5.41,1.6-6.54,6.18l-1.7,6.59c-.72,2.72-.41,4.68.67,5.81A4.19,4.19,0,0,0,945.2,138.54Z"/><path class="cls-3" d="M988,119.34h.77c.31-1.23.57-2.42,1.08-4.27H994c.36,0,.52.26.41.62-1.69,6.84-3.55,14.15-5.19,20.58-.36,1.44,0,2,1.23,2h1.75l-1,3.76c0,.31-.25.41-.56.41h-1.91c-3,0-4.68-1.65-4.58-4.43h-.67a10.17,10.17,0,0,1-8.75,4.94c-5.86,0-8.59-4.47-6.94-11.27l1.75-7c1.85-7.56,5.81-10.19,10.6-10.19A8.15,8.15,0,0,1,988,119.34Zm-11.68,19.2c2.93,0,5.61-1.39,9.11-6,.82-3.19,1.59-6.38,2.41-9.57-1.75-2.53-4-4-6.89-4-3.24,0-5.41,1.6-6.54,6.18l-1.7,6.59c-.72,2.72-.41,4.68.67,5.81A4.19,4.19,0,0,0,976.27,138.54Z"/><path class="cls-3" d="M1013.84,141.88a.65.65,0,0,1-.72.57h-3.4c-6.48,0-10-3.24-8.08-10.65,1-4.22,2.06-8.29,3.09-12.41h-4.53a.4.4,0,0,1-.41-.56c.31-1.34.62-2.42.92-3.76h5.1c.31-1.24.62-2.42.93-3.65.41-1.65.82-3.35,1.23-5h4.12a.42.42,0,0,1,.41.57c-.67,2.68-1.34,5.4-2,8.08H1020a.44.44,0,0,1,.41.56c-.36,1.34-.62,2.42-.93,3.76h-10.14c-1,4.12-2.11,8.29-3.14,12.46-.62,2.57-.62,4.17.26,5.09.72.83,2.11,1.08,4.17,1.08h4.17C1014.46,139.36,1014.2,140.55,1013.84,141.88Z"/><path class="cls-3" d="M1041,119.34h.77c.31-1.23.57-2.42,1.08-4.27h4.22c.36,0,.51.26.41.62-1.7,6.84-3.55,14.15-5.2,20.58-.36,1.44,0,2,1.24,2h1.75l-1,3.76c0,.31-.26.41-.57.41h-1.9c-3,0-4.68-1.65-4.58-4.43h-.67a10.17,10.17,0,0,1-8.75,4.94c-5.87,0-8.59-4.47-6.95-11.27l1.75-7c1.86-7.56,5.82-10.19,10.6-10.19A8.16,8.16,0,0,1,1041,119.34Zm-11.69,19.2c2.94,0,5.61-1.39,9.11-6,.83-3.19,1.6-6.38,2.42-9.57-1.75-2.53-4-4-6.89-4-3.25,0-5.41,1.6-6.54,6.18l-1.7,6.59c-.72,2.72-.41,4.68.67,5.81A4.19,4.19,0,0,0,1029.35,138.54Z"/></g></g></svg>